Hanif_Deep_7_5_grf.mot
version=1
nRows=58
nColumns=19
inDegrees=yes
endheader
time	right_ground_force_vx	right_ground_force_vy	right_ground_force_vz	right_ground_force_px	right_ground_force_py	right_ground_force_pz	right_ground_torque_x	right_ground_torque_y	right_ground_torque_z	left_ground_force_vx	left_ground_force_vy	left_ground_force_vz	left_ground_force_px	left_ground_force_py	left_ground_force_pz	left_ground_torque_x	left_ground_torque_y	left_ground_torque_z
1.600000	-1.033370	304.052000	-20.864200	0.188247	0.000000	-1.442850	-19.223200	6.029260	-4.008560	5.365100	309.854000	23.086500	0.209347	0.000000	-1.010620	33.199000	-9.228480	2.267690
1.605000	-0.960899	303.188000	-21.056500	0.188624	0.000000	-1.442270	-19.342800	6.056560	-3.890700	5.089740	308.634000	23.297300	0.209849	0.000000	-1.011000	33.191700	-9.252140	2.400100
1.610000	-0.494402	301.743000	-20.845300	0.188584	0.000000	-1.442750	-19.096100	6.045420	-3.880820	5.155140	307.718000	23.533900	0.210617	0.000000	-1.011620	33.284500	-9.205980	2.625050
1.615000	-1.288150	302.098000	-21.336900	0.188918	0.000000	-1.442610	-19.175500	5.920920	-3.788370	4.780430	306.819000	23.917000	0.211296	0.000000	-1.012480	33.460800	-9.081050	2.819850
1.620000	-1.561700	300.159000	-21.754200	0.189819	0.000000	-1.441950	-19.256900	5.858080	-3.503810	3.564380	309.892000	24.470900	0.211751	0.000000	-1.011860	33.637300	-9.031670	2.981770
1.625000	-1.893490	299.394000	-22.202000	0.190857	0.000000	-1.442750	-18.977100	5.878170	-3.197350	2.918880	307.931000	24.772800	0.212303	0.000000	-1.013120	33.832500	-8.867730	3.125550
1.630000	-2.438360	299.263000	-22.165400	0.190357	0.000000	-1.441600	-19.325100	5.906110	-3.350800	2.245050	308.437000	25.544700	0.212919	0.000000	-1.012600	33.743700	-8.847910	3.299690
1.635000	-3.209340	298.114000	-22.777700	0.191148	0.000000	-1.441900	-19.177600	5.861560	-3.117760	1.799190	306.131000	25.371300	0.213293	0.000000	-1.012670	33.523900	-8.791080	3.385180
1.640000	-3.774020	298.068000	-22.729400	0.191575	0.000000	-1.441960	-19.166500	5.780590	-2.985020	2.182780	307.521000	25.563000	0.213266	0.000000	-1.012580	33.638700	-8.844530	3.392400
1.645000	-4.211510	297.042000	-23.008400	0.191758	0.000000	-1.442030	-19.090800	5.731590	-2.927810	2.444090	307.433000	25.431300	0.213986	0.000000	-1.012490	33.594700	-8.809400	3.622510
1.650000	-4.613790	296.582000	-22.524200	0.192179	0.000000	-1.440980	-19.379200	5.646330	-2.784410	2.438000	306.391000	25.988800	0.213624	0.000000	-1.012700	33.545800	-8.788180	3.481470
1.655000	-5.289660	298.459000	-23.122400	0.192713	0.000000	-1.441550	-19.343500	5.580080	-2.646510	2.125350	305.064000	26.086800	0.214284	0.000000	-1.012890	33.464700	-8.821450	3.655000
1.660000	-5.783620	296.659000	-23.024100	0.192957	0.000000	-1.441300	-19.314900	5.612490	-2.566740	1.855870	306.271000	26.186200	0.214239	0.000000	-1.012810	33.581700	-8.749830	3.662320
1.665000	-6.128620	295.979000	-23.129000	0.193479	0.000000	-1.442100	-19.037600	5.514810	-2.403300	1.710090	304.817000	27.011200	0.214731	0.000000	-1.013240	33.556100	-8.799150	3.762490
1.670000	-5.860070	295.925000	-23.386000	0.193773	0.000000	-1.441350	-19.250200	5.513100	-2.319890	1.777090	305.650000	26.911700	0.214273	0.000000	-1.013000	33.574200	-8.744720	3.643700
1.675000	-6.727430	294.472000	-23.382300	0.194317	0.000000	-1.441630	-19.092800	5.518710	-2.156650	0.853519	302.858000	26.865100	0.214195	0.000000	-1.013370	33.402300	-8.656100	3.573450
1.680000	-6.637680	294.835000	-23.257900	0.194380	0.000000	-1.440520	-19.444400	5.532730	-2.138010	0.639920	304.331000	27.908500	0.215424	0.000000	-1.013230	33.529200	-8.645500	3.947210
1.685000	-6.832210	294.476000	-23.858200	0.194275	0.000000	-1.441660	-19.086400	5.508920	-2.178940	0.335877	304.990000	27.205100	0.214865	0.000000	-1.012940	33.520400	-8.672160	3.799430
1.690000	-6.764920	293.188000	-23.780000	0.194558	0.000000	-1.441540	-19.040100	5.587800	-2.094590	0.284837	302.347000	27.508800	0.215142	0.000000	-1.013520	33.408000	-8.569880	3.839160
1.695000	-7.200820	293.263000	-23.655000	0.194812	0.000000	-1.441310	-19.120700	5.557220	-2.017140	0.339647	304.202000	27.405100	0.215272	0.000000	-1.012120	33.186600	-8.485290	3.922480
1.700000	-6.926530	293.684000	-24.075100	0.195083	0.000000	-1.441370	-19.123100	5.527360	-1.943410	0.748435	302.491000	27.293400	0.215294	0.000000	-1.013490	33.401100	-8.533840	3.901560
1.705000	-7.348960	292.784000	-23.794200	0.195316	0.000000	-1.440620	-19.292400	5.405960	-1.858960	0.507528	301.564000	27.392100	0.215302	0.000000	-1.013010	33.162500	-8.507980	3.884800
1.710000	-6.976590	290.998000	-24.114200	0.195878	0.000000	-1.441010	-19.054100	5.433710	-1.695460	0.888193	301.942000	27.557300	0.215133	0.000000	-1.012600	33.070100	-8.542490	3.836510
1.715000	-7.666970	291.165000	-24.174800	0.196194	0.000000	-1.441230	-19.016000	5.380280	-1.603810	1.492430	300.087000	27.630000	0.214291	0.000000	-1.012680	32.872800	-8.571310	3.550810
1.720000	-7.677000	292.976000	-24.936700	0.196121	0.000000	-1.442040	-18.899200	5.525630	-1.656720	1.510300	297.871000	27.575200	0.214882	0.000000	-1.012950	32.709500	-8.692430	3.681430
1.725000	-7.870690	290.502000	-24.125400	0.196383	0.000000	-1.440770	-19.110100	5.346240	-1.544720	1.610820	299.589000	27.335500	0.214543	0.000000	-1.013190	32.968800	-8.686410	3.616900
1.730000	-8.054570	290.477000	-24.568500	0.196685	0.000000	-1.440160	-19.291000	5.321020	-1.464630	1.875140	298.568000	27.167000	0.214840	0.000000	-1.012670	32.694100	-8.673900	3.697010
1.735000	-8.117240	290.195000	-24.379800	0.196416	0.000000	-1.440990	-19.028400	5.239240	-1.531990	2.102810	299.851000	27.961600	0.214813	0.000000	-1.012840	32.878500	-8.615060	3.698490
1.740000	-7.945470	290.447000	-24.819600	0.197530	0.000000	-1.440630	-19.145300	5.240130	-1.214810	1.533700	298.845000	27.503200	0.214695	0.000000	-1.012730	32.750800	-8.700970	3.643390
1.745000	-8.253340	289.624000	-24.905300	0.197482	0.000000	-1.440070	-19.261100	5.234110	-1.231690	2.150300	299.089000	27.350400	0.214331	0.000000	-1.012800	32.781100	-8.695220	3.548660
1.750000	-8.355470	289.885000	-24.805000	0.197819	0.000000	-1.441320	-18.917800	5.249200	-1.132340	2.653980	298.053000	27.566500	0.213912	0.000000	-1.012510	32.565800	-8.857780	3.389480
1.755000	-8.104460	288.875000	-24.909700	0.197172	0.000000	-1.440600	-19.057000	5.290120	-1.324830	3.074880	298.660000	27.928000	0.214504	0.000000	-1.012580	32.645500	-8.772920	3.580900
1.760000	-8.477210	289.017000	-25.249400	0.197946	0.000000	-1.439850	-19.288200	5.164600	-1.098240	2.635840	297.456000	27.810300	0.214311	0.000000	-1.013600	32.826300	-8.867240	3.492390
1.765000	-8.528080	288.702000	-25.814200	0.198267	0.000000	-1.439890	-19.253700	5.110580	-1.011790	3.155010	298.603000	27.661200	0.214845	0.000000	-1.012960	32.751600	-8.716800	3.695590
1.770000	-8.914780	288.271000	-26.169200	0.198287	0.000000	-1.439670	-19.301000	5.164110	-1.020300	2.774980	299.305000	27.874900	0.214094	0.000000	-1.012980	32.841300	-8.771870	3.466610
1.775000	-8.987960	288.516000	-26.129600	0.198606	0.000000	-1.439040	-19.497100	5.073360	-0.919460	3.149700	297.815000	27.624400	0.214014	0.000000	-1.012770	32.606200	-8.804970	3.424940
1.780000	-8.889730	289.850000	-26.238800	0.198752	0.000000	-1.439880	-19.338100	5.037180	-0.874033	3.189110	299.094000	27.870700	0.213591	0.000000	-1.012370	32.624900	-8.841850	3.308770
1.785000	-9.029380	288.260000	-26.918500	0.198813	0.000000	-1.438460	-19.647800	5.058630	-0.874376	3.526830	297.752000	28.103800	0.213818	0.000000	-1.013270	32.738800	-8.835600	3.353620
1.790000	-9.686850	288.604000	-27.099400	0.199361	0.000000	-1.439320	-19.434300	4.984860	-0.714886	3.649550	299.017000	28.045100	0.214229	0.000000	-1.012490	32.639600	-8.904160	3.494530
1.795000	-9.611520	288.215000	-27.066900	0.199567	0.000000	-1.438750	-19.570100	5.007090	-0.656912	3.584030	298.850000	28.189400	0.213904	0.000000	-1.012960	32.764800	-8.840050	3.395620
1.800000	-9.303590	288.571000	-26.927100	0.198968	0.000000	-1.438150	-19.760400	4.942880	-0.820544	4.202350	298.562000	27.938800	0.214397	0.000000	-1.014050	33.041500	-8.901730	3.546680
1.805000	-9.307800	287.613000	-27.292900	0.199540	0.000000	-1.438430	-19.613000	4.928860	-0.660768	4.705550	300.273000	28.442300	0.214327	0.000000	-1.013560	33.072300	-8.933110	3.543770
1.810000	-9.231300	287.600000	-27.261500	0.200458	0.000000	-1.437920	-19.758300	4.923840	-0.393543	4.152020	301.249000	28.790200	0.214379	0.000000	-1.013440	33.157600	-8.946260	3.560120
1.815000	-8.986920	289.681000	-27.682600	0.200134	0.000000	-1.438530	-19.718600	4.971970	-0.493894	4.387200	300.761000	28.670800	0.215046	0.000000	-1.013670	33.167100	-9.038940	3.751020
1.820000	-8.907720	289.147000	-27.519600	0.199382	0.000000	-1.438370	-19.725600	4.938170	-0.707681	4.201980	301.520000	28.503100	0.214658	0.000000	-1.013850	33.308400	-9.040230	3.648770
1.825000	-8.737740	288.305000	-27.930100	0.199624	0.000000	-1.437580	-19.893700	4.935070	-0.645434	5.042550	304.256000	28.379500	0.214583	0.000000	-1.012500	33.182500	-9.032670	3.684510
1.830000	-8.773220	288.976000	-27.817700	0.199447	0.000000	-1.438160	-19.775300	5.022860	-0.701997	5.383490	302.700000	28.365500	0.214195	0.000000	-1.012980	33.144500	-9.232130	3.524900
1.835000	-9.085950	286.906000	-27.794400	0.199666	0.000000	-1.437120	-19.940000	4.945490	-0.636502	6.253820	303.063000	27.907700	0.214711	0.000000	-1.013950	33.455000	-9.320290	3.701720
1.840000	-8.637920	287.703000	-28.334300	0.200232	0.000000	-1.436800	-20.071300	4.824260	-0.466537	6.437440	304.255000	28.025800	0.214901	0.000000	-1.013720	33.515000	-9.307110	3.780620
1.845000	-9.292090	288.615000	-28.427000	0.200366	0.000000	-1.437200	-20.034800	4.876650	-0.436563	6.532650	304.420000	28.021400	0.215470	0.000000	-1.013950	33.597300	-9.422060	3.948740
1.850000	-9.108300	288.681000	-28.741100	0.200214	0.000000	-1.437200	-20.031800	4.780690	-0.475948	6.321260	304.162000	28.266400	0.214898	0.000000	-1.014170	33.642100	-9.346820	3.767290
1.855000	-9.397270	288.826000	-28.674100	0.199929	0.000000	-1.437310	-20.013500	4.707200	-0.552162	6.062920	303.161000	28.328900	0.214893	0.000000	-1.013460	33.322200	-9.368480	3.741620
1.860000	-8.624950	286.739000	-29.205300	0.200151	0.000000	-1.437010	-19.946000	4.820610	-0.507783	5.624390	305.171000	28.368100	0.215096	0.000000	-1.012850	33.371800	-9.273670	3.841930
1.865000	-8.725950	287.850000	-28.864100	0.200258	0.000000	-1.436920	-20.048600	4.803270	-0.467157	5.299580	304.225000	28.399500	0.215098	0.000000	-1.013330	33.419900	-9.372950	3.812910
1.870000	-8.439940	288.788000	-29.465000	0.200542	0.000000	-1.437210	-20.024100	4.894770	-0.400492	5.637940	303.836000	27.993700	0.215203	0.000000	-1.013930	33.548600	-9.402950	3.849800
1.875000	-8.672930	287.820000	-29.951600	0.200304	0.000000	-1.436470	-20.177800	4.886520	-0.482862	5.770590	303.931000	28.369000	0.215285	0.000000	-1.013080	33.299300	-9.370700	3.870580
1.880000	-8.407600	286.922000	-29.826700	0.200933	0.000000	-1.436030	-20.233200	4.809660	-0.290640	5.508760	304.720000	27.928800	0.215571	0.000000	-1.013000	33.369100	-9.405160	3.978300
1.885000	-8.576180	287.513000	-30.072200	0.200865	0.000000	-1.436350	-20.185900	4.805930	-0.313692	5.898610	304.457000	28.164200	0.215912	0.000000	-1.013150	33.373200	-9.531310	4.064450
